<svg width="128" height="128" viewBox="0 0 128 128" fill="none" xmlns="http://www.w3.org/2000/svg">
<path d="M63.375 30.7083H54.0417C51.5663 30.7083 49.1923 31.6917 47.442 33.442C45.6917 35.1923 44.7083 37.5663 44.7083 40.0417C44.7083 42.517 45.6917 44.891 47.442 46.6413C49.1923 48.3917 51.5663 49.375 54.0417 49.375M63.375 30.7083V49.375M63.375 30.7083H72.7083C73.934 30.7083 75.1477 30.9497 76.28 31.4188C77.4124 31.8878 78.4413 32.5753 79.308 33.442C80.1747 34.3087 80.8622 35.3376 81.3312 36.47C81.8003 37.6023 82.0417 38.816 82.0417 40.0417C82.0417 41.2673 81.8003 42.481 81.3312 43.6134C80.8622 44.7458 80.1747 45.7746 79.308 46.6413C78.4413 47.508 77.4124 48.1955 76.28 48.6645C75.1477 49.1336 73.934 49.375 72.7083 49.375M63.375 49.375H54.0417M63.375 49.375H72.7083M63.375 49.375V68.0417M54.0417 49.375C51.5663 49.375 49.1923 50.3583 47.442 52.1087C45.6917 53.859 44.7083 56.233 44.7083 58.7083C44.7083 61.1837 45.6917 63.5577 47.442 65.308C49.1923 67.0583 51.5663 68.0417 54.0417 68.0417M72.7083 49.375C71.4827 49.375 70.269 49.6164 69.1366 50.0855C68.0043 50.5545 66.9753 51.242 66.1087 52.1087C65.242 52.9753 64.5545 54.0043 64.0855 55.1366C63.6164 56.269 63.375 57.4827 63.375 58.7083C63.375 59.934 63.6164 61.1477 64.0855 62.28C64.5545 63.4124 65.242 64.4413 66.1087 65.308C66.9753 66.1747 68.0043 66.8622 69.1366 67.3312C70.269 67.8003 71.4827 68.0417 72.7083 68.0417C73.934 68.0417 75.1477 67.8003 76.28 67.3312C77.4124 66.8622 78.4413 66.1747 79.308 65.308C80.1747 64.4413 80.8622 63.4124 81.3312 62.28C81.8003 61.1477 82.0417 59.934 82.0417 58.7083C82.0417 57.4827 81.8003 56.269 81.3312 55.1366C80.8622 54.0043 80.1747 52.9753 79.308 52.1087C78.4413 51.242 77.4124 50.5545 76.28 50.0855C75.1477 49.6164 73.934 49.375 72.7083 49.375ZM54.0417 68.0417C51.5663 68.0417 49.1923 69.025 47.442 70.7753C45.6917 72.5257 44.7083 74.8996 44.7083 77.375C44.7083 79.8504 45.6917 82.2243 47.442 83.9747C49.1923 85.725 51.5663 86.7083 54.0417 86.7083C56.517 86.7083 58.891 85.725 60.6413 83.9747C62.3917 82.2243 63.375 79.8504 63.375 77.375V68.0417M54.0417 68.0417H63.375M110.75 110.75L88.0938 88.0938M100.333 58.6667C100.333 81.6785 81.6785 100.333 58.6667 100.333C35.6548 100.333 17 81.6785 17 58.6667C17 35.6548 35.6548 17 58.6667 17C81.6785 17 100.333 35.6548 100.333 58.6667Z" stroke="black" stroke-width="2" stroke-linecap="round" stroke-linejoin="round"/>
</svg>
